<?xml version="1.0" encoding="utf-8"?>
<!-- Generator: Adobe Illustrator 25.0.1, SVG Export Plug-In . SVG Version: 6.00 Build 0)  -->
<svg version="1.1" id="Capa_1" xmlns="http://www.w3.org/2000/svg" xmlns:xlink="http://www.w3.org/1999/xlink" x="0px" y="0px"
	 viewBox="0 0 571.3200073 324.7200012" style="enable-background:new 0 0 571.3200073 324.7200012;" xml:space="preserve">
<style type="text/css">
	.st0{fill:#293357;}
	.st1{fill-rule:evenodd;clip-rule:evenodd;fill:#293357;}
	.st2{fill:#00A3C7;}
</style>
<g>
	<path class="st0" d="M150.1486053,216.2500153c0-0.382019,0.3039856-0.7170105,0.7120056-0.7170105h8.9679871
		c4.5700073,0,8.3359985,3.723999,8.3359985,8.2309875c0,4.6140137-3.7659912,8.3720093-8.2990112,8.3720093h-3.9069824v8.7420044
		c0,0.3670044-0.3340149,0.7059937-0.7120056,0.7059937h-4.3859863c-0.40802,0-0.7120056-0.3389893-0.7120056-0.7059937V216.2500153
		z M159.4946136,226.6989899c1.5949707,0,2.9379883-1.2649841,2.9379883-2.9349976
		c0-1.5629883-1.3430176-2.7539978-2.9379883-2.7539978h-3.5360107v5.6889954H159.4946136z"/>
	<path class="st0" d="M188.3665924,215.1681366c7.446991,0,13.3969727,5.9830017,13.3969727,13.4339905
		c0,7.4379883-5.9499817,13.3580017-13.3969727,13.3580017c-7.4420166,0-13.3580017-5.9200134-13.3580017-13.3580017
		C175.0085907,221.1511383,180.9245758,215.1681366,188.3665924,215.1681366 M188.3665924,236.0051117
		c4.0969849,0,7.446991-3.3519897,7.446991-7.4029846c0-4.0970154-3.3500061-7.4819946-7.446991-7.4819946
		c-4.0490112,0-7.40802,3.3849792-7.40802,7.4819946C180.9585724,232.6531219,184.3175812,236.0051117,188.3665924,236.0051117"/>
	<path class="st0" d="M210.3158112,216.2483063c0-0.3799744,0.2999878-0.71698,0.7079773-0.71698h4.4290161
		c0.375,0,0.7059937,0.3370056,0.7059937,0.71698v19.8660278h8.8580017c0.4049988,0,0.7030029,0.3349915,0.7030029,0.7099915
		v4.052002c0,0.3729858-0.2980042,0.7120056-0.7030029,0.7120056h-13.9930115c-0.4079895,0-0.7079773-0.3390198-0.7079773-0.7120056
		V216.2483063z"/>
	<path class="st0" d="M235.437912,216.2483063c0-0.3799744,0.3329773-0.71698,0.7119751-0.71698h4.460022
		c0.3729858,0,0.7079773,0.3370056,0.7079773,0.71698v24.6280212c0,0.3729858-0.3349915,0.7120056-0.7079773,0.7120056h-4.460022
		c-0.3789978,0-0.7119751-0.3390198-0.7119751-0.7120056V216.2483063z"/>
	<path class="st0" d="M257.1834717,221.0099945h-5.3270111c-0.4029846,0-0.7039795-0.3349915-0.7039795-0.7099915v-4.052002
		c0-0.3789978,0.3009949-0.7160034,0.7039795-0.7160034h16.5229645c0.4119873,0,0.7050171,0.3370056,0.7050171,0.7160034v4.052002
		c0,0.375-0.2930298,0.7099915-0.7050171,0.7099915h-5.3189697v19.8660278c0,0.3739929-0.3339844,0.7119751-0.7080078,0.7119751
		h-4.46698c-0.3680115,0-0.7019958-0.3379822-0.7019958-0.7119751V221.0099945z"/>
	<path class="st0" d="M278.7463684,216.2494049c0-0.3800049,0.2890015-0.7149963,0.7009888-0.7149963h15.4029541
		c0.4030151,0,0.7050171,0.3349915,0.7050171,0.7149963v4.053009c0,0.3710022-0.302002,0.7080078-0.7050171,0.7080078h-10.30896
		v4.6099854h8.4869995c0.3690186,0,0.7009888,0.3389893,0.7009888,0.7059937v4.0580139
		c0,0.4119873-0.3319702,0.7059937-0.7009888,0.7059937h-8.4869995v5.0270081h10.30896
		c0.4030151,0,0.7050171,0.3320007,0.7050171,0.7059937v4.0559998c0,0.3710022-0.302002,0.7030029-0.7050171,0.7030029h-15.4029541
		c-0.4119873,0-0.7009888-0.3320007-0.7009888-0.7030029V216.2494049z M283.6863708,212.8903961l-0.7810059-1.5579834
		c-0.1470337-0.2980042,0.0379639-0.5610046,0.2279663-0.7019958l6.322998-3.8739929
		c0.223999-0.1490173,0.7789917-0.2200012,0.9639893,0.1139832l1.269043,2.196991
		c0.2919922,0.5550232,0.0739746,0.9240112-0.2260132,1.1140137l-6.7709961,3.0480042
		C284.2073669,213.5234222,283.872345,213.2743988,283.6863708,212.8903961"/>
	<path class="st0" d="M317.2728577,215.1670074c3.7259521,0,6.4729614,1.1530151,9.0029907,3.460022
		c0.3369751,0.2940063,0.3369751,0.742981,0.0390015,1.0379944l-2.9030151,3.0130005
		c-0.2529907,0.2640076-0.6630249,0.2640076-0.9240112,0c-1.3880005-1.2229919-3.1970215-1.8900146-5.0269775-1.8900146
		c-4.2070313,0-7.2930298,3.4960022-7.2930298,7.6620178c0,4.1340027,3.1229858,7.552002,7.3339844,7.552002
		c1.7480469,0,3.6430054-0.6340027,4.9860229-1.7850037c0.2609863-0.2220154,0.7379761-0.2220154,0.9689941,0.0350037
		l2.8970337,3.0889893c0.2589722,0.2650146,0.2259521,0.7489929-0.0390015,1.0029907
		c-2.5230103,2.45401-5.7220459,3.6159973-9.0419922,3.6159973c-7.4420166,0-13.4300537-5.92099-13.4300537-13.3569946
		C303.842804,221.155014,309.8308411,215.1670074,317.2728577,215.1670074"/>
	<path class="st0" d="M335.9432678,215.8342133c0-0.3709717,0.3449707-0.6669922,0.7099609-0.6669922h0.9349976
		l14.8410034,14.2870178h0.0369873v-13.2080078c0-0.3779907,0.2980347-0.7120056,0.7140503-0.7120056h4.4549561
		c0.3779907,0,0.7150269,0.3340149,0.7150269,0.7120056v25.0449829c0,0.3640137-0.3370361,0.6679993-0.7150269,0.6679993h-0.5869751
		c-0.1140137,0-0.4119873-0.1119995-0.4849854-0.1889954l-14.7040405-14.7749939h-0.0299683v13.8829956
		c0,0.3670044-0.3040161,0.7059937-0.7059937,0.7059937h-4.4290161c-0.3710327,0-0.7080078-0.3389893-0.7080078-0.7059937
		L335.9432678,215.8342133z"/>
	<path class="st0" d="M369.9482117,216.2483063c0-0.3799744,0.3359985-0.71698,0.7059937-0.71698h4.4649658
		c0.3760376,0,0.710022,0.3370056,0.710022,0.71698v24.6280212c0,0.3729858-0.3339844,0.7120056-0.710022,0.7120056h-4.4649658
		c-0.3699951,0-0.7059937-0.3390198-0.7059937-0.7120056V216.2483063z"/>
	<path class="st0" d="M398.3909607,215.1670074c3.7119751,0,6.4709473,1.1530151,8.9989624,3.460022
		c0.3339844,0.2940063,0.3339844,0.742981,0.0410156,1.0379944l-2.9039917,3.0130005
		c-0.2590332,0.2640076-0.6710205,0.2640076-0.9280396,0c-1.3809814-1.2229919-3.2009888-1.8900146-5.0289917-1.8900146
		c-4.2089844,0-7.2949829,3.4960022-7.2949829,7.6620178c0,4.1340027,3.1339722,7.552002,7.3380127,7.552002
		c1.7439575,0,3.6480103-0.6340027,4.9859619-1.7850037c0.257019-0.2220154,0.7380371-0.2220154,0.9650269,0.0350037
		l2.901001,3.0889893c0.2589722,0.2650146,0.2219849,0.7489929-0.0339966,1.0029907
		c-2.5300293,2.45401-5.7269897,3.6159973-9.039978,3.6159973c-7.4510498,0-13.4360352-5.92099-13.4360352-13.3569946
		C384.9549255,221.155014,390.9399109,215.1670074,398.3909607,215.1670074"/>
	<path class="st0" d="M427.8343811,215.1681366c7.4509888,0,13.4039917,5.9830017,13.4039917,13.4339905
		c0,7.4379883-5.9530029,13.3580017-13.4039917,13.3580017c-7.434021,0-13.3540039-5.9200134-13.3540039-13.3580017
		C414.4803772,221.1511383,420.4003601,215.1681366,427.8343811,215.1681366 M427.8343811,236.0051117
		c4.098999,0,7.4509888-3.3519897,7.4509888-7.4029846c0-4.0970154-3.3519897-7.4819946-7.4509888-7.4819946
		c-4.0450439,0-7.40802,3.3849792-7.40802,7.4819946C420.4263611,232.6531219,423.7893372,236.0051117,427.8343811,236.0051117"/>
	<path class="st0" d="M161.6497955,257.9581909c3.1319885,0,6.5549927,1.3060303,9.0829773,3.5010071
		c0.3320007,0.2550049,0.3690186,0.7059937,0.072998,1.006012l-2.9419861,3.1210022
		c-0.2940063,0.2659912-0.7080078,0.2659912-1.0020142,0.0429993c-1.4129944-1.3059998-3.0529785-1.7870178-4.875-1.7870178
		c-4.0539856,0-7.3349915,3.4230042-7.3349915,7.5160217c0,4.0489807,3.3129883,7.4069824,7.3720093,7.4069824
		c1.0769958,0,2.196991-0.1549988,3.3110046-0.6019897v-2.1539917h-2.3470154c-0.4029846,0-0.7080078-0.2980042-0.7080078-0.6670227
		v-3.690979c0-0.4060059,0.3050232-0.7010193,0.7080078-0.7010193h7.4750061c0.3840027,0,0.678009,0.3340149,0.678009,0.7010193
		l0.0409851,10.0130005c0,0.1879883-0.1579895,0.4809875-0.3070068,0.5959778c0,0-3.8309937,2.4110107-9.2249756,2.4110107
		c-7.4060059,0-13.3580017-5.8729858-13.3580017-13.3129883
		C148.2917938,263.913208,154.2437897,257.9581909,161.6497955,257.9581909"/>
	<path class="st0" d="M183.2631989,259.0038147c0-0.375,0.2999878-0.7080078,0.7120056-0.7080078h11.125
		c4.4629822,0,8.1049805,3.6109924,8.1049805,8.0360107c0,3.4239807-2.2559814,6.1779785-5.5,7.4830017l5.0900269,9.4519958
		c0.2719727,0.4839783,0,1.072998-0.6240234,1.072998h-4.9519958c-0.2929993,0-0.519989-0.177002-0.5929871-0.335022
		l-4.9500122-9.8569946h-2.5700073v9.4900208c0,0.3669739-0.3349915,0.7019958-0.7019958,0.7019958h-4.4289856
		c-0.4120178,0-0.7120056-0.335022-0.7120056-0.7019958V259.0038147z M194.614212,269.4227905
		c1.5279846,0,2.8279724-1.4159851,2.8279724-2.9769897c0-1.5619812-1.2999878-2.8309937-2.8279724-2.8309937h-5.5080261v5.8079834
		H194.614212z"/>
	<path class="st0" d="M210.6926727,283.3760071l11.6530151-25.0420227c0.1000061-0.2249756,0.3699951-0.4119873,0.6239929-0.4119873
		h0.3779907c0.2590027,0,0.5160217,0.1870117,0.6300049,0.4119873l11.6490173,25.0420227
		c0.2229919,0.4859924-0.0769958,0.9649963-0.6380005,0.9649963h-4.125c-0.6690063,0-0.9720154-0.2250061-1.3059998-0.9259949
		l-1.3390198-2.9420166h-10.1199951l-1.3399963,2.973999c-0.1860046,0.4470215-0.5960083,0.8940125-1.3370056,0.8940125h-4.0939941
		C210.768692,284.3410034,210.4686737,283.8619995,210.6926727,283.3760071 M225.9897003,275.4069824l-2.8280029-6.1319885
		h-0.0380249l-2.7979736,6.1319885H225.9897003z"/>
	<path class="st0" d="M243.8368073,258.592804c0-0.3739929,0.3339844-0.67099,0.7079773-0.67099h0.9299927l14.852005,14.2910156
		h0.0369873v-13.210022c0-0.3729858,0.2929993-0.7079773,0.7019958-0.7079773h4.4650269
		c0.3709717,0,0.7039795,0.3349915,0.7039795,0.7079773v25.0440063c0,0.3720093-0.3330078,0.6740112-0.7039795,0.6740112h-0.5980225
		c-0.1139832,0-0.4029846-0.1130066-0.4809875-0.1900024l-14.6969757-14.7749939h-0.0410156v13.8829956
		c0,0.3649902-0.2940063,0.7019958-0.7009888,0.7019958h-4.4309998c-0.3720093,0-0.7000122-0.3370056-0.7000122-0.7019958
		L243.8368073,258.592804z"/>
	<path class="st0" d="M289.1122131,257.9225769c3.7189941,0,6.4729614,1.1530151,9.0029907,3.4620056
		c0.3359985,0.3000183,0.3359985,0.7449951,0.0339966,1.0400085l-2.8980103,3.0159912
		c-0.2550049,0.2610168-0.6669922,0.2610168-0.9329834,0c-1.375-1.2279968-3.1900024-1.8979797-5.019043-1.8979797
		c-4.2019653,0-7.2879639,3.4949951-7.2879639,7.664978c0,4.131012,3.1229858,7.5550232,7.3259888,7.5550232
		c1.7520142,0,3.6430054-0.6330261,4.9810181-1.78302c0.2659912-0.2229919,0.7379761-0.2229919,0.9689941,0.0370178
		l2.901001,3.0859985c0.2630005,0.2569885,0.2249756,0.7509766-0.0390015,1.0059814
		c-2.5270386,2.4519958-5.7260132,3.6130066-9.0369873,3.6130066c-7.4380493,0-13.4280396-5.9230042-13.4280396-13.3630066
		C275.6841736,263.9125977,281.6741638,257.9225769,289.1122131,257.9225769"/>
	<path class="st0" d="M318.8193054,257.9266968c7.4509888,0,13.3949585,5.9869995,13.3949585,13.4290161
		c0,7.4429932-5.9439697,13.3589783-13.3949585,13.3589783c-7.4420166,0-13.3540039-5.9159851-13.3540039-13.3589783
		C305.4653015,263.9136963,311.3772888,257.9266968,318.8193054,257.9266968 M318.8193054,278.7616882
		c4.09198,0,7.4509888-3.3539734,7.4509888-7.4059753c0-4.0960083-3.3590088-7.473999-7.4509888-7.473999
		c-4.0540161,0-7.401001,3.3779907-7.401001,7.473999C311.4183044,275.4077148,314.7652893,278.7616882,318.8193054,278.7616882"/>
	<path class="st0" d="M341.1365662,259.0038757c0-0.375,0.3049927-0.7099915,0.7189941-0.7099915h4.4249878
		c0.3709717,0,0.6989746,0.3349915,0.6989746,0.7099915v19.8680115h8.8560181c0.40802,0,0.7119751,0.3389893,0.7119751,0.7099915
		v4.0559998c0,0.3710022-0.3039551,0.70401-0.7119751,0.70401h-13.9799805c-0.4140015,0-0.7189941-0.3330078-0.7189941-0.70401
		V259.0038757z"/>
	<path class="st0" d="M376.2430725,257.9266968c7.4419556,0,13.3929443,5.9869995,13.3929443,13.4290161
		c0,7.4429932-5.9509888,13.3589783-13.3929443,13.3589783c-7.4440308,0-13.3540039-5.9159851-13.3540039-13.3589783
		C362.8890686,263.9136963,368.7990417,257.9266968,376.2430725,257.9266968 M376.2430725,278.7616882
		c4.09198,0,7.4419556-3.3539734,7.4419556-7.4059753c0-4.0960083-3.3499756-7.473999-7.4419556-7.473999
		c-4.0580444,0-7.4030151,3.3779907-7.4030151,7.473999C368.8400574,275.4077148,372.1850281,278.7616882,376.2430725,278.7616882"
		/>
	<path class="st0" d="M401.3885803,258.5148926c0.0389404-0.3329773,0.375-0.59198,0.6729736-0.59198h0.5960083
		c0.1859741,0,0.5180054,0.1489868,0.6300049,0.3699951l8.6279907,16.0799866h0.0789795l8.6340332-16.0799866
		c0.1099854-0.2210083,0.4469604-0.3699951,0.6329956-0.3699951h0.5929565c0.2980347,0,0.6310425,0.2590027,0.6720581,0.59198
		l4.2059937,25.0120239c0.0719604,0.4790039-0.2610474,0.8129883-0.710022,0.8129883h-4.3900146
		c-0.3369751,0-0.6709595-0.2969971-0.7080078-0.5910034l-1.6799927-11.493988h-0.072998l-6.2440186,12.0509949
		c-0.1169434,0.223999-0.4469604,0.4100037-0.6409912,0.4100037h-0.6629639c-0.2310181,0-0.5220337-0.1860046-0.6340332-0.4100037
		l-6.2789917-12.0509949h-0.0839844l-1.6380005,11.493988c-0.0350342,0.2940063-0.3309937,0.5910034-0.7059937,0.5910034h-4.3890381
		c-0.4459839,0-0.782959-0.3339844-0.7079468-0.8129883L401.3885803,258.5148926z"/>
	<path class="st0" d="M438.0975647,259.0050049c0-0.3759766,0.2870483-0.7099915,0.6990356-0.7099915h8.6749878
		c4.3969727,0,7.9990234,3.0130005,7.9990234,6.9219971c0,2.8659973-2.56604,4.9530029-4.3190308,5.8770142
		c1.9700317,0.822998,4.9940186,2.6439819,4.9940186,6.0700073c0,4.164978-3.6879883,7.1759949-8.1170044,7.1759949h-9.2319946
		c-0.4119873,0-0.6990356-0.3340149-0.6990356-0.7010193V259.0050049z M446.8045959,268.86203
		c1.4110107,0,2.6029663-1.1890259,2.6029663-2.6760254c0-1.4919739-1.1919556-2.5299988-2.6029663-2.5299988h-2.9050293v5.2060242
		H446.8045959z M447.285614,279.0220032c1.4459839,0,2.6789551-1.190979,2.6789551-2.7129822
		c0-1.4920044-1.6019897-2.605011-3.0529785-2.605011h-3.0120239v5.3179932H447.285614z"/>
	<path class="st0" d="M466.0613708,259.0038757c0-0.375,0.3409424-0.7099915,0.7159424-0.7099915h4.4550171
		c0.382019,0,0.7130127,0.3349915,0.7130127,0.7099915v24.6340027c0,0.3710022-0.3309937,0.70401-0.7130127,0.70401h-4.4550171
		c-0.375,0-0.7159424-0.3330078-0.7159424-0.70401V259.0038757z"/>
	<path class="st0" d="M480.1984558,283.3760071l11.6550293-25.0420227c0.1040039-0.2249756,0.3649902-0.4119873,0.6240234-0.4119873
		h0.3759766c0.257019,0,0.5200195,0.1870117,0.6259766,0.4119873l11.6530151,25.0420227
		c0.2269897,0.4859924-0.0819702,0.9649963-0.6389771,0.9649963h-4.1240234c-0.6669922,0-0.9719849-0.2250061-1.302002-0.9259949
		l-1.3430176-2.9420166h-10.125l-1.3299561,2.973999c-0.19104,0.4470215-0.5930176,0.8940125-1.3439941,0.8940125h-4.0900269
		C480.2784729,284.3410034,479.9764709,283.8619995,480.1984558,283.3760071 M495.4955139,275.4069824l-2.8320313-6.1319885
		h-0.0319824l-2.7930298,6.1319885H495.4955139z"/>
	<path class="st0" d="M513.3422241,258.592804c0-0.3739929,0.3459473-0.67099,0.7149658-0.67099h0.9299927l14.8410034,14.2910156
		h0.0410156v-13.210022c0-0.3729858,0.2999878-0.7079773,0.7130127-0.7079773h4.4589844
		c0.3690186,0,0.7080078,0.3349915,0.7080078,0.7079773v25.0440063c0,0.3720093-0.3389893,0.6740112-0.7080078,0.6740112h-0.5939941
		c-0.1099854,0-0.4119873-0.1130066-0.4849854-0.1900024l-14.7030029-14.7749939h-0.0290527v13.8829956
		c0,0.3649902-0.3019409,0.7019958-0.7099609,0.7019958h-4.4329834c-0.3650513,0-0.7000122-0.3370056-0.7000122-0.7019958
		L513.3422241,258.592804z"/>
	<path class="st0" d="M557.5165405,257.9266968c7.4399414,0,13.3949585,5.9869995,13.3949585,13.4290161
		c0,7.4429932-5.9550171,13.3589783-13.3949585,13.3589783c-7.4380493,0-13.3540039-5.9159851-13.3540039-13.3589783
		C544.1625366,263.9136963,550.0784912,257.9266968,557.5165405,257.9266968 M557.5165405,278.7616882
		c4.0899658,0,7.4399414-3.3539734,7.4399414-7.4059753c0-4.0960083-3.3499756-7.473999-7.4399414-7.473999
		c-4.0560303,0-7.40802,3.3779907-7.40802,7.473999C550.1085205,275.4077148,553.4605103,278.7616882,557.5165405,278.7616882"/>
	<path class="st1" d="M329.9924622,32.0951347c37.0710449-5.7219849,66.4689941,14.6400146,77.4470215,32.5490074
		c7.309021,11.9470215,9.0549927,20.6879883,10.0130005,28.1110229
		c14.9169922,116.4349747-157.196991,116.24897-148.9210205,5.7050171
		c1.6550293-21.9820557,8.9960327-32.9160156,15.5170288-41.2910118
		C293.3874817,45.144146,309.5065002,35.2591362,329.9924622,32.0951347 M301.7065125,124.715126
		c3.2009888,9.6610184,13.0449829,21.6880264,23.1529541,25.9120255
		c26.5690308,11.1159973,51.5870361-4.4079895,59.085022-24.0840225
		c13.3889771-35.2489624-11.5859985-71.0529785-45.0380249-67.2779541
		C308.9775085,62.6151543,290.9294739,92.2631607,301.7065125,124.715126"/>
	<path class="st1" d="M569.5209351,179.133316h-31.1100464V33.1343193c9.8710327,0,31.1830444,0,31.1830444,16.0360107
		C569.5939331,61.1983452,569.5209351,179.133316,569.5209351,179.133316"/>
	<path class="st1" d="M509.1835022,152.1045074h-0.9450073c-0.1130371-0.0149841-0.2220459-0.0189819-0.335022-0.0189819
		h-38.6119995l-0.0469971-90.9109802v-0.0029907V49.1085014c0-15.9769897-21.4509888-15.9769897-31.276001-15.9769897v3.9910278
		v-2.5289917v144.5389709h85.0330505C523.0015259,170.6255341,523.0015259,152.1045074,509.1835022,152.1045074"/>
	<path class="st1" d="M249.6450653,62.220623c-11.7689819-27.2139893-41.9069824-31.914978-67.3379822-31.8980103
		c-0.0440063,0-0.0910034,0.0029907-0.1380005,0.0029907v-0.0029907c-9.8730164,0-31.9599915,3.0720215-31.9599915,3.0720215
		l-0.0220032,145.7389832c9.8699951,0,31.9619751,0,31.9619751-16.0540161v-0.2829895
		c0.0050049,0,0.0200195-0.0150146,0.0200195-0.0150146v-23.243988
		C235.5080719,147.4696198,268.5960388,106.0126114,249.6450653,62.220623 M204.5540924,113.7765884
		c-11.9430237,1.2520142-22.5370178-0.3059692-22.5370178-0.3059692l0.0140076-54.0109825
		c0,0,9.6130066-0.6199951,22.0849915,0.1829834c12.4559937,0.8010254,21.1629944,12.8839684,21.1629944,27.6439781
		C225.279068,102.0436172,216.5050812,112.5265884,204.5540924,113.7765884"/>
	<path class="st0" d="M108.2957916,16.4830742C59.7077789,81.5881119,32.5737762,206.0520782,96.0667877,302.4600525
		c9.8459778,14.1270142,17.2559814,21.1760254,17.2559814,21.1760254
		C42.0897675,217.8150787,93.3897858,79.2131119,146.3837738,8.1971245L98.8247833,2.0751147
		c0,0-22.1539917-6.2120361-31.447998,9.1409912L108.2957916,16.4830742z"/>
	<path class="st2" d="M109.125412,323.6896973C26.3324108,234.4087372,35.6674042,92.8607559,85.5623932,26.015728
		c0,0-37.243988-4.4390259-44.4920044-5.1950073c-9.0849934-0.9500122-28.0690022-5.0419922-32.3269806,16.0549927
		C-32.9315948,243.1607208,109.125412,323.6896973,109.125412,323.6896973"/>
	<path class="st0" d="M150.3295135,306.7269897c0-0.25,0.2249756-0.4749756,0.4749756-0.4749756h1.0010071
		c0.25,0,0.4750061,0.2249756,0.4750061,0.4749756v16.5570068c0,0.25-0.2250061,0.4750061-0.4750061,0.4750061h-1.0010071
		c-0.25,0-0.4749756-0.2250061-0.4749756-0.4750061V306.7269897z"/>
	<path class="st0" d="M160.8871002,306.4523926c0-0.25,0.2249756-0.4499817,0.4749756-0.4499817h0.625l11.2790222,14.0549927
		h0.0509949V306.727417c0-0.25,0.1999817-0.4750061,0.4750061-0.4750061h0.875c0.2509766,0,0.4749756,0.2250061,0.4749756,0.4750061
		v16.8309937c0,0.2510071-0.223999,0.4499817-0.4749756,0.4499817h-0.4490051l-11.480011-14.3299866h-0.0249939v13.6059875
		c0,0.2490234-0.2009888,0.4750061-0.4750061,0.4750061h-0.8760071c-0.25,0-0.4749756-0.2259827-0.4749756-0.4750061V306.4523926z"
		/>
	<path class="st0" d="M182.6269073,321.132782c0.125-0.1499939,0.25-0.3249817,0.375-0.4749756
		c0.25-0.3250122,0.5249939-0.5250244,0.8759766-0.2250061c0.1740112,0.1499939,2,1.901001,4.2270203,1.901001
		c2.0249939,0,3.3509827-1.2749939,3.3509827-2.7510071c0-1.7259827-1.5010071-2.7519836-4.3769836-3.9509888
		c-2.7510071-1.2019958-4.4020081-2.3269958-4.4020081-5.178009c0-1.7000122,1.3509827-4.4509888,5.3269958-4.4509888
		c2.4509888,0,4.2770081,1.2749939,4.2770081,1.2749939c0.1499939,0.0759888,0.4499817,0.3760071,0.1499939,0.8509827
		c-0.1000061,0.1500244-0.2000122,0.3250122-0.3009949,0.4750061c-0.2250061,0.3500061-0.4750061,0.4500122-0.875,0.223999
		c-0.1740112-0.098999-1.7510071-1.1499939-3.276001-1.1499939c-2.651001,0-3.4519958,1.7009888-3.4519958,2.7510071
		c0,1.6759949,1.276001,2.6520081,3.3769836,3.526001c3.3760071,1.3760071,5.552002,2.6520081,5.552002,5.5529785
		c0,2.6000061-2.4750061,4.5010071-5.4020081,4.5010071c-2.9509888,0-4.9519958-1.7250061-5.2769775-2.0249939
		C182.576889,321.8088074,182.326889,321.6077881,182.6269073,321.132782"/>
	<path class="st0" d="M203.0648956,307.9281921h-4.3520203c-0.2739868,0-0.4750061-0.2259827-0.4750061-0.4749756v-0.7260132
		c0-0.25,0.2010193-0.4750061,0.4750061-0.4750061h10.6040039c0.276001,0,0.4760132,0.2250061,0.4760132,0.4750061v0.7260132
		c0,0.2489929-0.2000122,0.4749756-0.4760132,0.4749756h-4.3519897v15.3560181c0,0.2489929-0.223999,0.4750061-0.4750061,0.4750061
		h-0.9500122c-0.25,0-0.4749756-0.2260132-0.4749756-0.4750061V307.9281921z"/>
	<path class="st0" d="M216.0492096,306.7269897c0-0.25,0.2249756-0.4749756,0.4749756-0.4749756h1.0010071
		c0.25,0,0.4750061,0.2249756,0.4750061,0.4749756v16.5570068c0,0.25-0.2250061,0.4750061-0.4750061,0.4750061h-1.0010071
		c-0.25,0-0.4749756-0.2250061-0.4749756-0.4750061V306.7269897z"/>
	<path class="st0" d="M229.0824127,307.9281921h-4.3510132c-0.2749939,0-0.4750061-0.2259827-0.4750061-0.4749756v-0.7260132
		c0-0.25,0.2000122-0.4750061,0.4750061-0.4750061h10.6040039c0.2749939,0,0.4750061,0.2250061,0.4750061,0.4750061v0.7260132
		c0,0.2489929-0.2000122,0.4749756-0.4750061,0.4749756h-4.3520203v15.3560181c0,0.2489929-0.2249756,0.4750061-0.4749756,0.4750061
		h-0.9500122c-0.2510071,0-0.4759827-0.2260132-0.4759827-0.4750061V307.9281921z"/>
	<path class="st0" d="M241.8422089,306.7269897c0-0.25,0.2249756-0.4749756,0.4749756-0.4749756h0.9500122
		c0.276001,0,0.4750061,0.2249756,0.4750061,0.4749756v10.4290161c0,2.8510132,1.776001,5.0780029,4.7030029,5.0780029
		c2.9509888,0,4.7509766-2.1759949,4.7509766-5.0270081v-10.480011c0-0.25,0.2010193-0.4749756,0.4760132-0.4749756h0.9500122
		c0.25,0,0.4749756,0.2249756,0.4749756,0.4749756v10.57901c0,3.803009-2.7009888,6.7030029-6.6519775,6.7030029
		c-3.927002,0-6.6029968-2.8999939-6.6029968-6.7030029V306.7269897z"/>
	<path class="st0" d="M271.2347717,306.0023804c2.5259399,0,4.3519897,0.875,6.0529785,2.3250122
		c0.1989746,0.2009888,0.2249756,0.5010071,0.0239868,0.7009888l-0.6749878,0.6750183
		c-0.2000122,0.25-0.4000244,0.2250061-0.6500244-0.0249939c-1.3009644-1.125-3.0759888-1.875-4.776001-1.875
		c-3.9530029,0-6.9779663,3.3259888-6.9779663,7.2030029c0,3.8509827,3.0249634,7.1769714,6.9779663,7.1769714
		c2.1749878,0,3.4500122-0.8759766,4.776001-1.875c0.25-0.2009888,0.4500122-0.1749878,0.6000366-0.0759888l0.7509766,0.6759949
		c0.2000122,0.1499939,0.1489868,0.5-0.026001,0.6750183c-1.7000122,1.6499939-3.8510132,2.4249878-6.0769653,2.4249878
		c-5.0010376,0-9.0280151-3.9759827-9.0280151-8.9769897C262.2067566,310.0293884,266.2337341,306.0023804,271.2347717,306.0023804"
		/>
	<path class="st0" d="M284.6708069,306.7269897c0-0.25,0.2249756-0.4749756,0.4749756-0.4749756h1.0009766
		c0.25,0,0.4750366,0.2249756,0.4750366,0.4749756v16.5570068c0,0.25-0.2250366,0.4750061-0.4750366,0.4750061h-1.0009766
		c-0.25,0-0.4749756-0.2250061-0.4749756-0.4750061V306.7269897z"/>
	<path class="st0" d="M302.9315491,306.0026855c5.0009766,0,9.0029907,4.026001,9.0029907,9.0290222
		c0,5.0009766-4.0020142,8.9769897-9.0029907,8.9769897c-5.0020142,0-8.9790039-3.9760132-8.9790039-8.9769897
		C293.9525452,310.0286865,297.9295349,306.0026855,302.9315491,306.0026855 M302.9315491,322.2586975
		c3.9760132,0,7.2520142-3.2510071,7.2520142-7.2269897c0-3.9780273-3.276001-7.2790222-7.2520142-7.2790222
		c-3.9769897,0-7.2280273,3.3009949-7.2280273,7.2790222C295.7035217,319.0076904,298.9545593,322.2586975,302.9315491,322.2586975
		 M300.6805725,303.6266785c-0.1000366-0.1999817,0-0.4009705,0.1499634-0.4749756l3.7509766-2.1010132
		c0.1500244-0.1000061,0.526001-0.1499939,0.651001,0.0740051l0.4490356,0.901001
		c0.1010132,0.2009888,0.0509644,0.4500122-0.1489868,0.526001l-4.0270386,1.6749878
		c-0.3499756,0.1499939-0.4749756,0.1499939-0.5749512-0.0499878L300.6805725,303.6266785z"/>
	<path class="st0" d="M319.2698669,306.4523926c0-0.25,0.2249756-0.4499817,0.4749756-0.4499817h0.625l11.2789917,14.0549927
		h0.0510254V306.727417c0-0.25,0.1999512-0.4750061,0.4749756-0.4750061h0.875c0.2509766,0,0.4749756,0.2250061,0.4749756,0.4750061
		v16.8309937c0,0.2510071-0.223999,0.4499817-0.4749756,0.4499817h-0.4489746l-11.4800415-14.3299866h-0.0249634v13.6059875
		c0,0.2490234-0.2000122,0.4750061-0.4750366,0.4750061h-0.8759766c-0.25,0-0.4749756-0.2259827-0.4749756-0.4750061V306.4523926z"
		/>
	<path class="st0" d="M350.9667053,306.7269897c0-0.25,0.2249756-0.4749756,0.4749756-0.4749756h0.9500122
		c0.276001,0,0.4749756,0.2249756,0.4749756,0.4749756v10.4290161c0,2.8510132,1.776001,5.0780029,4.7020264,5.0780029
		c2.9519653,0,4.7519531-2.1759949,4.7519531-5.0270081v-10.480011c0-0.25,0.2010498-0.4749756,0.4750366-0.4749756h0.9509888
		c0.25,0,0.4749756,0.2249756,0.4749756,0.4749756v10.57901c0,3.803009-2.7009888,6.7030029-6.6529541,6.7030029
		c-3.9260254,0-6.6019897-2.8999939-6.6019897-6.7030029V306.7269897z"/>
	<path class="st0" d="M372.6064148,306.4523926c0-0.25,0.2249756-0.4499817,0.4749756-0.4499817h0.625l11.2789917,14.0549927
		h0.0510254V306.727417c0-0.25,0.1989746-0.4750061,0.4749756-0.4750061h0.875c0.25,0,0.4749756,0.2250061,0.4749756,0.4750061
		v16.8309937c0,0.2510071-0.2249756,0.4499817-0.4749756,0.4499817h-0.4500122l-11.4790039-14.3299866h-0.026001v13.6059875
		c0,0.2490234-0.1999512,0.4750061-0.4749756,0.4750061h-0.875c-0.25,0-0.4749756-0.2259827-0.4749756-0.4750061V306.4523926z"/>
	<path class="st0" d="M395.4715881,306.7269897c0-0.25,0.2249756-0.4749756,0.4749756-0.4749756h1.0009766
		c0.25,0,0.4750366,0.2249756,0.4750366,0.4749756v16.5570068c0,0.25-0.2250366,0.4750061-0.4750366,0.4750061h-1.0009766
		c-0.25,0-0.4749756-0.2250061-0.4749756-0.4750061V306.7269897z"/>
	<path class="st0" d="M403.6528015,306.9022827c-0.1500244-0.3249817,0.0499878-0.6499939,0.4249878-0.6499939h1.0009766
		c0.2249756,0,0.375,0.1499939,0.4249878,0.2749939l6.2269897,14.0050049h0.1010132l6.2269897-14.0050049
		c0.0500488-0.125,0.2250366-0.2749939,0.4250488-0.2749939h1c0.375,0,0.5759888,0.3250122,0.4259644,0.6499939
		l-7.6029663,16.8320007c-0.0750122,0.1500244-0.2260132,0.2740173-0.4250488,0.2740173h-0.2509766
		c-0.1749878,0-0.3499756-0.1239929-0.4249878-0.2740173L403.6528015,306.9022827z"/>
	<path class="st0" d="M426.1419983,306.7269897c0-0.25,0.2009888-0.4749756,0.4749756-0.4749756h9.8540039
		c0.2749634,0,0.4749756,0.2249756,0.4749756,0.4749756v0.7260132c0,0.25-0.2000122,0.4750061-0.4749756,0.4750061h-8.4030151
		v6.1029968h7.1779785c0.25,0,0.4750366,0.223999,0.4750366,0.4750061v0.7250061
		c0,0.276001-0.2250366,0.4749756-0.4750366,0.4749756h-7.1779785v6.3770142h8.4030151
		c0.2749634,0,0.4749756,0.2259827,0.4749756,0.4750061v0.7259827c0,0.25-0.2000122,0.4750061-0.4749756,0.4750061h-9.8540039
		c-0.2739868,0-0.4749756-0.2250061-0.4749756-0.4750061V306.7269897z"/>
	<path class="st0" d="M444.4545593,306.7268066c0-0.2489929,0.2009888-0.4750061,0.4749756-0.4750061h6.4780273
		c3.0009766,0,5.4519653,2.3520203,5.4519653,5.3270264c0,2.3019714-1.526001,4.2279968-3.7019653,5.1019897l3.4269409,6.3540039
		c0.1750488,0.3249817,0,0.723999-0.4259644,0.723999h-1.2750244c-0.2249756,0-0.3499756-0.1239929-0.3999634-0.2250061
		l-3.3259888-6.6270142h-4.7770386v6.3770142c0,0.25-0.2249756,0.4750061-0.4749756,0.4750061h-0.9760132
		c-0.2739868,0-0.4749756-0.2250061-0.4749756-0.4750061V306.7268066z M451.2825623,315.2557983
		c1.9259644,0,3.6009521-1.6009827,3.6009521-3.6509705c0-1.901001-1.6749878-3.5270081-3.6009521-3.5270081h-4.8530273v7.1779785
		H451.2825623z"/>
	<path class="st0" d="M463.3680725,321.132782c0.125-0.1499939,0.25-0.3249817,0.375-0.4749756
		c0.25-0.3250122,0.5249634-0.5250244,0.8759766-0.2250061c0.1740112,0.1499939,2,1.901001,4.2269897,1.901001
		c2.0250244,0,3.3510132-1.2749939,3.3510132-2.7510071c0-1.7259827-1.5010376-2.7519836-4.3770142-3.9509888
		c-2.7509766-1.2019958-4.4019775-2.3269958-4.4019775-5.178009c0-1.7000122,1.3509521-4.4509888,5.3269653-4.4509888
		c2.4509888,0,4.2770386,1.2749939,4.2770386,1.2749939c0.1499634,0.0759888,0.4499512,0.3760071,0.1499634,0.8509827
		c-0.0999756,0.1500244-0.2000122,0.3250122-0.3009644,0.4750061c-0.223999,0.3500061-0.4750366,0.4500122-0.875,0.223999
		c-0.1740112-0.098999-1.75-1.1499939-3.276001-1.1499939c-2.651001,0-3.4510498,1.7009888-3.4510498,2.7510071
		c0,1.6759949,1.276001,2.6520081,3.3760376,3.526001c3.3759766,1.3760071,5.5529785,2.6520081,5.5529785,5.5529785
		c0,2.6000061-2.4760132,4.5010071-5.4030151,4.5010071c-2.9509888,0-4.9519653-1.7250061-5.2769775-2.0249939
		C463.3180237,321.8088074,463.0680237,321.6077881,463.3680725,321.132782"/>
	<path class="st0" d="M481.3304749,306.7269897c0-0.25,0.2249756-0.4749756,0.4749756-0.4749756h1.0009766
		c0.25,0,0.4750366,0.2249756,0.4750366,0.4749756v16.5570068c0,0.25-0.2250366,0.4750061-0.4750366,0.4750061h-1.0009766
		c-0.25,0-0.4749756-0.2250061-0.4749756-0.4750061V306.7269897z"/>
	<path class="st0" d="M494.3631897,307.9281921h-4.3520508c-0.2749634,0-0.4749756-0.2259827-0.4749756-0.4749756v-0.7260132
		c0-0.25,0.2000122-0.4750061,0.4749756-0.4750061h10.6040039c0.276001,0,0.4760132,0.2250061,0.4760132,0.4750061v0.7260132
		c0,0.2489929-0.2000122,0.4749756-0.4760132,0.4749756h-4.3519897v15.3560181c0,0.2489929-0.2249756,0.4750061-0.4749756,0.4750061
		h-0.9500122c-0.25,0-0.4749756-0.2260132-0.4749756-0.4750061V307.9281921z"/>
	<path class="st0" d="M503.9963684,323.1085815l7.6029663-16.8320007c0.0750122-0.1489868,0.2000122-0.2739868,0.4250183-0.2739868
		h0.25c0.2260132,0,0.3500366,0.125,0.4250488,0.2739868l7.5529785,16.8320007
		c0.1499634,0.3250122-0.0490112,0.651001-0.4249878,0.651001h-1c-0.2250366,0-0.375-0.151001-0.4260254-0.2749939
		l-1.8499756-4.1279907h-8.8790588l-1.8250122,4.1279907c-0.0499878,0.1239929-0.1999512,0.2749939-0.4259644,0.2749939h-1
		C504.0463562,323.7595825,503.846344,323.4335938,503.9963684,323.1085815 M515.8764038,317.8065796
		c-1.2260132-2.7259827-2.4260254-5.4769897-3.6520386-8.2029724h-0.2000122l-3.6510315,8.2029724H515.8764038z"/>
	<path class="st0" d="M526.4859009,306.7268066c0-0.2489929,0.2009888-0.4750061,0.4749756-0.4750061h6.4780273
		c3.0009766,0,5.4519653,2.3520203,5.4519653,5.3270264c0,2.3019714-1.526001,4.2279968-3.7019653,5.1019897l3.4269409,6.3540039
		c0.1750488,0.3249817,0,0.723999-0.4249878,0.723999h-1.2749634c-0.2260132,0-0.3510132-0.1239929-0.401001-0.2250061
		l-3.3259888-6.6270142h-4.7770386v6.3770142c0,0.25-0.2249756,0.4750061-0.4749756,0.4750061h-0.9760132
		c-0.2739868,0-0.4749756-0.2250061-0.4749756-0.4750061V306.7268066z M533.3139038,315.2557983
		c1.9259644,0,3.6019897-1.6009827,3.6019897-3.6509705c0-1.901001-1.6760254-3.5270081-3.6019897-3.5270081h-4.8520508v7.1779785
		H533.3139038z"/>
	<path class="st0" d="M546.5248413,306.7269897c0-0.25,0.2249756-0.4749756,0.4759521-0.4749756h1
		c0.25,0,0.4750366,0.2249756,0.4750366,0.4749756v16.5570068c0,0.25-0.2250366,0.4750061-0.4750366,0.4750061h-1
		c-0.2509766,0-0.4759521-0.2250061-0.4759521-0.4750061V306.7269897z"/>
	<path class="st0" d="M554.6813965,323.1085815l7.6029663-16.8320007c0.0750122-0.1489868,0.2000122-0.2739868,0.4249878-0.2739868
		h0.25c0.2260132,0,0.3500366,0.125,0.4250488,0.2739868l7.5529785,16.8320007
		c0.1499634,0.3250122-0.0490112,0.651001-0.4249878,0.651001h-1c-0.2250366,0-0.3760376-0.151001-0.4260254-0.2749939
		l-1.8499756-4.1279907h-8.8790283l-1.8250122,4.1279907c-0.0499878,0.1239929-0.1999512,0.2749939-0.4259644,0.2749939h-1
		C554.7313843,323.7595825,554.5313721,323.4335938,554.6813965,323.1085815 M566.5614014,317.8065796
		c-1.2260132-2.7259827-2.4260254-5.4769897-3.6520386-8.2029724h-0.2000122l-3.651001,8.2029724H566.5614014z"/>
</g>
</svg>
