<?xml version="1.0" encoding="utf-8"?>
<svg version="1.1" id="Logo_Poli" xmlns="http://www.w3.org/2000/svg" xmlns:xlink="http://www.w3.org/1999/xlink"
	 viewBox="0 0 120 120" xml:space="preserve">
<style type="text/css">
	.st0{fill:#293357;}
	.st1{fill:#00A3C7;}
</style>
<g>
	<!-- Forma principal del logo del Poli -->
	<path class="st0" d="M60,10c-27.6,0-50,22.4-50,50s22.4,50,50,50s50-22.4,50-50S87.6,10,60,10z M60,95c-19.3,0-35-15.7-35-35
		s15.7-35,35-35s35,15.7,35,35S79.3,95,60,95z"/>
	<circle class="st1" cx="60" cy="60" r="25"/>
	<path class="st0" d="M60,40c-11,0-20,9-20,20s9,20,20,20s20-9,20-20S71,40,60,40z M60,70c-5.5,0-10-4.5-10-10s4.5-10,10-10
		s10,4.5,10,10S65.5,70,60,70z"/>
</g>
</svg>
